<svg width="78" height="17" viewBox="0 0 78 17" fill="none" xmlns="http://www.w3.org/2000/svg">
<path d="M4.95455 14C8.05682 14 9.89631 12.081 9.89631 8.89915C9.89631 5.72727 8.05682 3.81818 5.02415 3.81818H1.50426V14H4.95455ZM3.34872 12.4041V5.41406H4.91974C6.98793 5.41406 8.06676 6.56747 8.06676 8.89915C8.06676 11.2408 6.98793 12.4041 4.86506 12.4041H3.34872ZM13.7639 14.1541C14.962 14.1541 15.678 13.5923 16.0061 12.951H16.0657V14H17.7959V8.8892C17.7959 6.87074 16.1503 6.2642 14.6936 6.2642C13.0878 6.2642 11.8548 6.98011 11.4571 8.37216L13.1375 8.6108C13.3164 8.08878 13.8235 7.64134 14.7035 7.64134C15.5387 7.64134 15.9961 8.06889 15.9961 8.8196V8.84943C15.9961 9.36648 15.4542 9.39134 14.1069 9.53551C12.6254 9.6946 11.2085 10.1371 11.2085 11.8572C11.2085 13.3587 12.3072 14.1541 13.7639 14.1541ZM14.2312 12.8317C13.4805 12.8317 12.9436 12.4886 12.9436 11.8274C12.9436 11.1364 13.5451 10.848 14.3505 10.7337C14.8228 10.669 15.7674 10.5497 16.0011 10.3608V11.2607C16.0011 12.1108 15.315 12.8317 14.2312 12.8317ZM19.6027 14H21.4024V6.36364H19.6027V14ZM20.5075 5.27983C21.0793 5.27983 21.5466 4.84233 21.5466 4.3054C21.5466 3.76349 21.0793 3.32599 20.5075 3.32599C19.9308 3.32599 19.4635 3.76349 19.4635 4.3054C19.4635 4.84233 19.9308 5.27983 20.5075 5.27983ZM22.8824 5.36435H26.0294V14H27.859V5.36435H31.006V3.81818H22.8824V5.36435ZM34.7132 14.1491C36.9504 14.1491 38.3723 12.5732 38.3723 10.2116C38.3723 7.84517 36.9504 6.2642 34.7132 6.2642C32.476 6.2642 31.0541 7.84517 31.0541 10.2116C31.0541 12.5732 32.476 14.1491 34.7132 14.1491ZM34.7232 12.7074C33.4852 12.7074 32.8787 11.6037 32.8787 10.2067C32.8787 8.80966 33.4852 7.69105 34.7232 7.69105C35.9412 7.69105 36.5477 8.80966 36.5477 10.2067C36.5477 11.6037 35.9412 12.7074 34.7232 12.7074ZM39.897 14H41.6968V11.4347L42.353 10.7337L44.6897 14H46.8424L43.7103 9.6598L46.6684 6.36364H44.5654L41.821 9.43111H41.6968V3.81818H39.897V14ZM50.9312 14.1491C52.711 14.1491 53.934 13.2791 54.2522 11.9517L52.5718 11.7628C52.3282 12.4091 51.7316 12.7472 50.956 12.7472C49.7927 12.7472 49.0221 11.9815 49.0072 10.674H54.3268V10.1222C54.3268 7.44247 52.716 6.2642 50.8367 6.2642C48.6492 6.2642 47.2224 7.87003 47.2224 10.2266C47.2224 12.6229 48.6293 14.1491 50.9312 14.1491ZM49.0121 9.46094C49.0668 8.48651 49.7877 7.66619 50.8616 7.66619C51.8957 7.66619 52.5917 8.42188 52.6016 9.46094H49.0121ZM57.6462 9.52557C57.6462 8.42188 58.3124 7.78551 59.262 7.78551C60.1917 7.78551 60.7485 8.39702 60.7485 9.41619V14H62.5482V9.13778C62.5532 7.30824 61.5092 6.2642 59.9332 6.2642C58.7897 6.2642 58.0042 6.81108 57.6562 7.66122H57.5667V6.36364H55.8465V14H57.6462V9.52557Z" fill="#DDA863"/>
<path d="M77.5 6.5L74.5 3.5L71.5 6.5" stroke="#DDA863" stroke-linejoin="round"/>
<path d="M77.5 10.5L74.5 13.5L71.5 10.5" stroke="#DDA863" stroke-linejoin="round"/>
</svg>
