<svg width="290" height="48" viewBox="0 0 290 48" fill="none" xmlns="http://www.w3.org/2000/svg">
<path d="M89.5685 10.4499H112.684C112.684 10.4499 101.976 10.4499 101.976 16.1721V43.5368H109.285V15.6622C109.285 10.4499 114.44 10.4499 114.44 10.4499H121.749V3.93445H89.5685V10.4499Z" fill="white"/>
<path d="M130.026 43.5935V14.3591H122.944V43.5935H130.026ZM126.457 10.9598C129.12 10.9598 131.216 9.43006 131.216 7.44711C131.216 5.52081 129.12 3.93445 126.457 3.93445C123.851 3.93445 121.755 5.52081 121.755 7.44711C121.755 9.43006 123.851 10.9598 126.457 10.9598Z" fill="white"/>
<path d="M134.068 14.3591V43.5935H141.093V14.3591H134.068ZM165.058 13.6792C161.716 13.6792 157.58 15.7755 156.39 18.7216C154.747 15.4356 151.234 13.3393 147.722 13.6792C144.379 14.1325 141.093 16.9086 141.093 24.1039C141.093 21.611 143.756 19.8547 146.249 19.8547C148.741 19.8547 151.404 21.2711 151.404 24.1039V43.5935H158.43V24.1039C158.43 21.2711 161.092 19.8547 163.585 19.8547C166.078 19.8547 168.741 21.611 168.741 24.1039V43.5935H175.766V23.764C175.766 17.9284 171.517 13.6792 165.058 13.6792Z" fill="white"/>
<path d="M207.142 28.9196C207.142 19.1748 200.173 13.5659 192.638 13.5659C185.103 13.5659 178.191 19.1748 178.191 28.9196C178.191 38.6644 184.99 44.16 192.638 44.2167C198.587 44.16 204.026 40.874 206.179 34.8685H198.474C197.057 36.9647 194.848 37.9846 192.638 37.9846C189.352 37.9846 186.066 35.6617 185.386 30.9026H207.029C207.085 30.2227 207.142 29.5995 207.142 28.9196ZM185.613 25.5203C187.029 21.781 189.635 19.8547 192.638 19.7981C195.698 19.8547 198.247 21.781 199.72 25.5203H185.613Z" fill="white"/>
<path d="M216.841 43.5935V3.93445H209.816V43.5935H216.841Z" fill="white"/>
<path d="M227.966 43.5935V14.3591H220.884V43.5935H227.966ZM224.396 10.9598C227.059 10.9598 229.155 9.43006 229.155 7.44711C229.155 5.52081 227.059 3.93445 224.396 3.93445C221.79 3.93445 219.694 5.52081 219.694 7.44711C219.694 9.43006 221.79 10.9598 224.396 10.9598Z" fill="white"/>
<path d="M245.604 13.7359C241.015 14.3025 239.032 18.6649 239.032 24.7271C239.032 22.2343 241.525 19.8547 244.868 19.8547C248.55 19.8547 250.703 22.2343 250.703 24.7271V43.5935H257.785V24.1039C257.785 16.7386 250.59 13.056 245.604 13.7359ZM232.007 14.3591V43.5935H239.032V14.3591H232.007Z" fill="white"/>
<path d="M289.091 28.9196C289.091 19.1748 282.123 13.5659 274.588 13.5659C267.052 13.5659 260.14 19.1748 260.14 28.9196C260.14 38.6644 266.939 44.16 274.588 44.2167C280.536 44.16 285.975 40.874 288.128 34.8685H280.423C279.007 36.9647 276.797 37.9846 274.588 37.9846C271.302 37.9846 268.015 35.6617 267.336 30.9026H288.978C289.035 30.2227 289.091 29.5995 289.091 28.9196ZM267.562 25.5203C268.979 21.781 271.585 19.8547 274.588 19.7981C277.647 19.8547 280.196 21.781 281.67 25.5203H267.562Z" fill="white"/>
<path fill-rule="evenodd" clip-rule="evenodd" d="M0 0H70.4V12.1962L0 33.3515V0ZM36.8 25.2297L70.4 15.1328V48H36.8V25.2297ZM33.6 26.1913L0 36.2882V48H33.6V26.1913Z" fill="#4655E1"/>
</svg>
