<svg width="66" height="17" viewBox="0 0 66 17" fill="none" xmlns="http://www.w3.org/2000/svg">
<path d="M1.05682 5.36435H4.20384V14H6.03338V5.36435H9.1804V3.81818H1.05682V5.36435ZM10.6641 14H12.4638V6.36364H10.6641V14ZM11.5689 5.27983C12.1407 5.27983 12.608 4.84233 12.608 4.3054C12.608 3.76349 12.1407 3.32599 11.5689 3.32599C10.9922 3.32599 10.5249 3.76349 10.5249 4.3054C10.5249 4.84233 10.9922 5.27983 11.5689 5.27983ZM14.3117 14H16.1114V9.35653C16.1114 8.4169 16.7378 7.78054 17.5134 7.78054C18.2741 7.78054 18.7961 8.29261 18.7961 9.07812V14H20.561V9.23722C20.561 8.37713 21.0731 7.78054 21.9431 7.78054C22.6689 7.78054 23.2456 8.2081 23.2456 9.1527V14H25.0503V8.87429C25.0503 7.16903 24.066 6.2642 22.664 6.2642C21.5553 6.2642 20.7101 6.81108 20.3721 7.66122H20.2925C19.9992 6.79616 19.2584 6.2642 18.2293 6.2642C17.2052 6.2642 16.4395 6.79119 16.1214 7.66122H16.0319V6.36364H14.3117V14ZM30.254 14.1491C32.0339 14.1491 33.2569 13.2791 33.5751 11.9517L31.8947 11.7628C31.651 12.4091 31.0545 12.7472 30.2789 12.7472C29.1155 12.7472 28.3449 11.9815 28.33 10.674H33.6496V10.1222C33.6496 7.44247 32.0388 6.2642 30.1596 6.2642C27.9721 6.2642 26.5452 7.87003 26.5452 10.2266C26.5452 12.6229 27.9522 14.1491 30.254 14.1491ZM28.335 9.46094C28.3897 8.48651 29.1106 7.66619 30.1844 7.66619C31.2185 7.66619 31.9145 8.42188 31.9245 9.46094H28.335ZM35.2489 14H41.5778V12.4538H37.0934V3.81818H35.2489V14ZM44.896 9.52557C44.896 8.42188 45.5622 7.78551 46.5117 7.78551C47.4414 7.78551 47.9983 8.39702 47.9983 9.41619V14H49.798V9.13778C49.8029 7.30824 48.7589 6.2642 47.1829 6.2642C46.0394 6.2642 45.2539 6.81108 44.9059 7.66122H44.8164V6.36364H43.0963V14H44.896V9.52557Z" fill="#DDA863"/>
<path d="M65.5 6.5L62.5 3.5L59.5 6.5" stroke="#DDA863" stroke-linejoin="round"/>
<path d="M65.5 10.5L62.5 13.5L59.5 10.5" stroke="#DDA863" stroke-linejoin="round"/>
</svg>
